<svg width="54" height="24" viewBox="0 0 54 24" fill="none" xmlns="http://www.w3.org/2000/svg">
<g clip-path="url(#clip0_18779_16352)">
<path d="M11.8045 4.16529C11.2018 4.88047 10.2375 5.44297 9.27322 5.36261C9.15269 4.39833 9.62679 3.36976 10.1813 2.74297C10.7839 2.01172 11.8366 1.4894 12.6964 1.44922C12.7929 2.44565 12.3991 3.43404 11.8045 4.16529ZM12.6804 5.54743C11.2822 5.46708 10.0848 6.34297 9.4259 6.34297C8.7509 6.34297 7.7384 5.58761 6.62947 5.61172C5.19108 5.63583 3.85715 6.44743 3.1259 7.74118C1.61519 10.3367 2.73215 14.1698 4.19465 16.2831C4.90983 17.3278 5.76162 18.4769 6.88662 18.4367C7.95537 18.3965 8.37322 17.7456 9.65894 17.7456C10.9527 17.7456 11.3304 18.4367 12.4554 18.4206C13.6205 18.3965 14.3518 17.376 15.067 16.3314C15.8786 15.1421 16.2161 13.993 16.2322 13.9287C16.208 13.9046 13.9822 13.0528 13.958 10.4814C13.9339 8.32779 15.7179 7.30726 15.7982 7.24297C14.7938 5.74833 13.2268 5.58761 12.6804 5.54743ZM20.7482 2.6385V18.3001H23.183V12.9483H26.55C29.6277 12.9483 31.7813 10.8349 31.7813 7.78136C31.7813 4.72779 29.6598 2.6385 26.6304 2.6385H20.7482ZM23.183 4.68761H25.9875C28.1009 4.68761 29.3063 5.81261 29.3063 7.7894C29.3063 9.76618 28.1009 10.9073 25.9795 10.9073H23.183V4.68761ZM36.217 18.4206C37.7438 18.4206 39.158 17.6492 39.8009 16.4198H39.8491V18.3001H42.0991V10.5055C42.0991 8.24743 40.2911 6.78493 37.5107 6.78493C34.9313 6.78493 33.0188 8.2635 32.9464 10.2885H35.1402C35.325 9.32422 36.217 8.6894 37.4384 8.6894C38.925 8.6894 39.7607 9.38047 39.7607 10.6581V11.526L36.7232 11.7108C33.9027 11.8796 32.3759 13.0367 32.3759 15.0456C32.3839 17.0706 33.9589 18.4206 36.217 18.4206ZM36.8759 16.5644C35.5822 16.5644 34.7545 15.9376 34.7545 14.9894C34.7545 14.001 35.55 13.4305 37.0688 13.3421L39.7688 13.1733V14.0573C39.7688 15.5198 38.5232 16.5644 36.8759 16.5644ZM45.1125 22.559C47.483 22.559 48.6 21.651 49.5723 18.9108L53.8393 6.93761H51.3643L48.5036 16.1867H48.4554L45.5947 6.93761H43.0554L47.1697 18.3403L46.9447 19.0314C46.575 20.2046 45.9723 20.6626 44.8955 20.6626C44.7027 20.6626 44.333 20.6385 44.1804 20.6224V22.5028C44.325 22.5349 44.9277 22.559 45.1125 22.559Z" fill="white"/>
</g>
<defs>
<clipPath id="clip0_18779_16352">
<rect width="53.1429" height="24" fill="white" transform="translate(0.696533)"/>
</clipPath>
</defs>
</svg>
