<svg width="61" height="24" viewBox="0 0 61 24" fill="none" xmlns="http://www.w3.org/2000/svg">
<g clip-path="url(#clip0_18779_16354)">
<path d="M43.48 6.47785C45.1342 6.47785 46.4125 6.92949 47.3901 7.83279C48.3676 8.73596 48.8187 9.94032 48.8187 11.4457V18.6716H46.7133V17.0158H46.6381C45.7358 18.3708 44.4575 19.0482 42.9536 19.0482C41.6753 19.0482 40.5473 18.6717 39.6451 17.9191C38.8179 17.1664 38.2915 16.1127 38.2915 14.9836C38.2915 13.7792 38.7427 12.8007 39.6451 12.048C40.5473 11.2953 41.8257 10.9942 43.3296 10.9942C44.683 10.9942 45.7358 11.2201 46.5629 11.7469V11.2201C46.5629 10.5175 46.3009 9.81502 45.7768 9.35726L45.6605 9.26302C45.059 8.73608 44.307 8.43502 43.48 8.43502C42.2017 8.43502 41.2242 8.96192 40.5474 10.0157L38.5924 8.81114C39.7954 7.23043 41.3745 6.47785 43.48 6.47785ZM32.8776 1.35938C34.2269 1.35938 35.5091 1.82938 36.5343 2.70585L36.7126 2.86467C37.7652 3.76796 38.2915 5.1229 38.2915 6.55302C38.2915 7.98314 37.7652 9.26279 36.7126 10.2413C35.6599 11.2197 34.3815 11.7467 32.8776 11.7467L29.2684 11.6714V18.6716H27.0125V1.35938H32.8776ZM43.7806 12.8006C42.8783 12.8006 42.1264 13.0264 41.5249 13.478C40.9234 13.8543 40.6226 14.3811 40.6226 15.0586C40.6226 15.6608 40.9234 16.1876 41.3745 16.4888C41.9009 16.8651 42.5024 17.0909 43.104 17.0909C43.9461 17.0909 44.7883 16.763 45.4471 16.1686L45.5854 16.0371C46.3373 15.3597 46.7133 14.5317 46.7133 13.6284C46.0366 13.1016 45.059 12.8004 43.7808 12.8004M33.0282 3.46679H29.2685V9.48879H33.0282C33.8552 9.48879 34.6824 9.18773 35.2088 8.58561C36.4118 7.45655 36.4118 5.57479 35.284 4.44561L35.2088 4.37032C34.6072 3.7682 33.8552 3.39185 33.0281 3.46714M61.0001 6.8542L53.556 23.9407H51.3001L54.0823 17.9943L49.1946 6.92949H51.6009L55.1349 15.435H55.2102L58.6691 6.92949H61.0001V6.8542Z" fill="#5F6368"/>
<path d="M20.3202 10.165C20.3202 9.48764 20.245 8.81022 20.1698 8.13281H10.7708V11.9716H16.1094C15.8839 13.1759 15.2072 14.3049 14.1545 14.9825V17.4663H17.3878C19.2676 15.7352 20.3203 13.1759 20.3203 10.1652" fill="#4285F4"/>
<path d="M10.7705 19.8743C13.4774 19.8743 15.7332 18.971 17.3876 17.4656L14.1543 14.9817C13.2519 15.5838 12.124 15.9602 10.7705 15.9602C8.21385 15.9602 5.95803 14.229 5.2061 11.8203H1.89771V14.3795C3.62712 17.7667 7.01084 19.8743 10.7705 19.8743Z" fill="#34A853"/>
<path d="M5.20615 11.8199C4.75508 10.6155 4.75508 9.2607 5.20615 7.98105V5.42188H1.89776C0.468977 8.20693 0.468977 11.5188 1.89776 14.3791L5.20615 11.8199Z" fill="#FBBC04"/>
<path d="M10.7706 3.91816C12.1993 3.91816 13.5527 4.4451 14.6055 5.42357L17.4629 2.56333C15.6581 0.907334 13.252 -0.0711364 10.8457 0.00404006C7.08604 0.00404006 3.62721 2.11169 1.9729 5.49886L5.28141 8.05804C5.95813 5.64933 8.21395 3.91816 10.7706 3.91816Z" fill="#EA4335"/>
</g>
<defs>
<clipPath id="clip0_18779_16354">
<rect width="60.1739" height="24" fill="white" transform="translate(0.826172)"/>
</clipPath>
</defs>
</svg>
