<svg width="21" height="24" viewBox="0 0 21 24" fill="none" xmlns="http://www.w3.org/2000/svg">
<g clip-path="url(#clip0_18779_16347)">
<path d="M17.624 1.86966C16.5167 0.607519 14.515 0.0664063 11.9542 0.0664063H4.52216C4.26878 0.0663672 4.02371 0.156741 3.83102 0.321271C3.63833 0.485802 3.51067 0.71369 3.47101 0.963943L0.376439 20.5905C0.314929 20.9775 0.614611 21.3279 1.00688 21.3279H5.59517L6.74749 14.019L6.71172 14.2479C6.79382 13.7312 7.23567 13.3502 7.7589 13.3502H9.93925C14.2225 13.3502 17.5764 11.6104 18.5561 6.57764C18.5852 6.42879 18.6104 6.28392 18.6322 6.14238C18.5085 6.0769 18.5085 6.0769 18.6322 6.14238C18.9239 4.28222 18.6302 3.01602 17.624 1.86966Z" fill="#27346A"/>
<path d="M8.50314 5.47229C8.62855 5.41246 8.76576 5.38151 8.90471 5.38169H14.7313C15.4213 5.38169 16.0648 5.42659 16.6529 5.52124C16.8174 5.5475 16.9812 5.57882 17.1438 5.61517C17.3743 5.66604 17.6021 5.72829 17.8264 5.80169C18.1155 5.89825 18.3848 6.0107 18.6323 6.14238C18.9239 4.28151 18.6302 3.01602 17.624 1.86966C16.516 0.607519 14.515 0.0664062 11.9542 0.0664062H4.52153C3.99821 0.0664062 3.55302 0.447386 3.47101 0.963943L0.376439 20.5897C0.314929 20.9774 0.614611 21.3274 1.00624 21.3274H5.59517L7.98587 6.16686C8.0094 6.01785 8.06877 5.87678 8.15887 5.7558C8.24897 5.63481 8.36712 5.53751 8.50314 5.47229Z" fill="#27346A"/>
<path d="M18.5561 6.57588C17.5764 11.6079 14.2226 13.3484 9.93922 13.3484H7.75824C7.23501 13.3484 6.79307 13.7295 6.71177 14.2461L5.27821 23.3339C5.22465 23.6726 5.48658 23.9795 5.82926 23.9795H9.69707C9.91863 23.9795 10.1329 23.9004 10.3013 23.7564C10.4698 23.6125 10.5814 23.4132 10.616 23.1944L10.6537 22.9973L11.3826 18.3772L11.4296 18.1219C11.4642 17.903 11.5758 17.7037 11.7442 17.5598C11.9126 17.4159 12.1269 17.3368 12.3484 17.3367H12.9273C16.6741 17.3367 19.6079 15.8145 20.4652 11.4122C20.8231 9.57247 20.6379 8.03647 19.6912 6.95758C19.4041 6.6308 19.0475 6.36092 18.6321 6.14062C18.6097 6.28288 18.5853 6.42704 18.5561 6.57588Z" fill="#2790C3"/>
<path d="M17.6069 5.73088C17.4541 5.68628 17.2999 5.64679 17.1445 5.61247C16.9818 5.5767 16.8181 5.54559 16.6536 5.51917C16.0649 5.42389 15.4219 5.37891 14.7313 5.37891H8.90538C8.76636 5.37867 8.62908 5.40989 8.50382 5.47022C8.36762 5.53521 8.24932 5.63244 8.15917 5.75347C8.06902 5.8745 8.00974 6.01568 7.98647 6.16479L6.74816 14.0163L6.7124 14.2452C6.79386 13.7285 7.23571 13.3475 7.75902 13.3475H9.94001C14.2233 13.3475 17.5771 11.6077 18.5568 6.57493C18.586 6.42609 18.6104 6.28185 18.6329 6.13968C18.3849 6.00882 18.1163 5.89546 17.8271 5.79962C17.7541 5.77543 17.6807 5.75251 17.607 5.73088" fill="#1F264F"/>
</g>
<defs>
<clipPath id="clip0_18779_16347">
<rect width="20.3444" height="24" fill="white" transform="translate(0.365723)"/>
</clipPath>
</defs>
</svg>
