<svg width="32" height="24" viewBox="0 0 32 24" fill="none" xmlns="http://www.w3.org/2000/svg">
<g clip-path="url(#clip0_18779_16342)">
<path d="M6.11746 23.8796V22.2911C6.11746 21.6821 5.74673 21.285 5.11127 21.285C4.79361 21.285 4.4494 21.3909 4.21109 21.7351C4.02585 21.4439 3.76112 21.285 3.36398 21.285C3.09913 21.285 2.83453 21.3644 2.62263 21.6557V21.338H2.06665V23.8796H2.62263V22.4764C2.62263 22.0264 2.86094 21.8145 3.23168 21.8145C3.60217 21.8145 3.78766 22.0528 3.78766 22.4764V23.8796H4.34364V22.4764C4.34364 22.0264 4.60824 21.8145 4.95244 21.8145C5.32317 21.8145 5.50842 22.0528 5.50842 22.4764V23.8796H6.11746ZM14.3512 21.338H13.4511V20.5702H12.8951V21.338H12.3921V21.8409H12.895V23.0059C12.895 23.5884 13.1333 23.9325 13.7688 23.9325C14.0071 23.9325 14.2717 23.8532 14.4572 23.7473L14.2982 23.2706C14.1394 23.3765 13.9541 23.4031 13.8217 23.4031C13.557 23.4031 13.4511 23.2442 13.4511 22.9794V21.8409H14.3512V21.338ZM19.0638 21.2849C18.7462 21.2849 18.5344 21.4439 18.402 21.6557V21.338H17.846V23.8796H18.402V22.4499C18.402 22.0264 18.5872 21.7881 18.9314 21.7881C19.0373 21.7881 19.1697 21.8146 19.2756 21.841L19.4345 21.3116C19.3286 21.285 19.1697 21.285 19.0638 21.285M11.942 21.5499C11.6771 21.3645 11.3065 21.2852 10.9094 21.2852C10.274 21.2852 9.85049 21.6028 9.85049 22.1059C9.85049 22.5295 10.1682 22.7677 10.7241 22.8472L10.9889 22.8737C11.2801 22.9266 11.439 23.006 11.439 23.1385C11.439 23.3237 11.2272 23.4561 10.8564 23.4561C10.4857 23.4561 10.1946 23.3237 10.0092 23.1914L9.74448 23.615C10.0357 23.8267 10.4329 23.9326 10.8299 23.9326C11.5713 23.9326 11.9949 23.5886 11.9949 23.1119C11.9949 22.6618 11.6507 22.4235 11.1212 22.3442L10.8564 22.3176C10.6181 22.2911 10.4329 22.2383 10.4329 22.0794C10.4329 21.8941 10.6181 21.7882 10.9094 21.7882C11.2272 21.7882 11.5448 21.9205 11.7037 22L11.942 21.5499ZM26.7153 21.2852C26.3975 21.2852 26.1857 21.444 26.0533 21.6558V21.3381H25.4973V23.8797H26.0533V22.4501C26.0533 22.0265 26.2386 21.7882 26.5827 21.7882C26.6887 21.7882 26.8211 21.8147 26.927 21.8411L27.0859 21.3117C26.98 21.2852 26.8211 21.2852 26.7153 21.2852ZM19.6198 22.6089C19.6198 23.3767 20.1493 23.9326 20.9701 23.9326C21.3407 23.9326 21.6054 23.8533 21.8701 23.6415L21.6054 23.1914C21.3936 23.3502 21.1819 23.4296 20.9436 23.4296C20.4935 23.4296 20.1758 23.1119 20.1758 22.6089C20.1758 22.1324 20.4935 21.8146 20.9436 21.7882C21.1819 21.7882 21.3936 21.8675 21.6054 22.0265L21.8701 21.5764C21.6054 21.3645 21.3407 21.2852 20.9701 21.2852C20.1493 21.2852 19.6198 21.8411 19.6198 22.6089ZM24.7561 22.6089V21.3381H24.2001V21.6558C24.0147 21.4176 23.75 21.2852 23.4058 21.2852C22.691 21.2852 22.135 21.8411 22.135 22.6089C22.135 23.3767 22.691 23.9326 23.4058 23.9326C23.7764 23.9326 24.0412 23.8003 24.2001 23.562V23.8797H24.7561V22.6089ZM22.7174 22.6089C22.7174 22.1588 23.0086 21.7882 23.4851 21.7882C23.9352 21.7882 24.253 22.1324 24.253 22.6089C24.253 23.059 23.9352 23.4296 23.4851 23.4296C23.0086 23.4031 22.7174 23.059 22.7174 22.6089ZM16.0722 21.2852C15.3308 21.2852 14.8012 21.8146 14.8012 22.6089C14.8012 23.4032 15.3307 23.9326 16.0986 23.9326C16.4692 23.9326 16.8399 23.8267 17.1312 23.5886L16.8663 23.1914C16.6546 23.3502 16.3898 23.4561 16.1251 23.4561C15.7809 23.4561 15.4367 23.2973 15.3572 22.8471H17.2371V22.6354C17.2636 21.8146 16.7871 21.2852 16.0722 21.2852ZM16.072 21.7617C16.4161 21.7617 16.6546 21.9736 16.7074 22.3707H15.3836C15.4366 22.0265 15.6749 21.7617 16.072 21.7617ZM29.8656 22.6089V20.332H29.3097V21.6558C29.1243 21.4176 28.8596 21.2852 28.5154 21.2852C27.8006 21.2852 27.2446 21.8411 27.2446 22.6089C27.2446 23.3767 27.8006 23.9326 28.5154 23.9326C28.8861 23.9326 29.1508 23.8003 29.3097 23.562V23.8797H29.8656V22.6089ZM27.8271 22.6089C27.8271 22.1588 28.1182 21.7882 28.5949 21.7882C29.0449 21.7882 29.3626 22.1324 29.3626 22.6089C29.3626 23.059 29.0449 23.4296 28.5949 23.4296C28.1182 23.4031 27.8271 23.059 27.8271 22.6089ZM9.24132 22.6089V21.3381H8.68534V21.6558C8.49998 21.4176 8.23525 21.2852 7.89105 21.2852C7.17624 21.2852 6.62026 21.8411 6.62026 22.6089C6.62026 23.3767 7.17624 23.9326 7.89105 23.9326C8.26179 23.9326 8.52651 23.8003 8.68534 23.562V23.8797H9.24132V22.6089ZM7.17624 22.6089C7.17624 22.1588 7.46749 21.7882 7.944 21.7882C8.39409 21.7882 8.71188 22.1324 8.71188 22.6089C8.71188 23.059 8.39409 23.4296 7.944 23.4296C7.46749 23.4031 7.17624 23.059 7.17624 22.6089Z" fill="white"/>
<path d="M11.7566 2.03906H20.0963V17.0241H11.7566V2.03906Z" fill="#FF5F00"/>
<path d="M12.2862 9.53114C12.2862 6.48651 13.7159 3.78597 15.9132 2.03855C14.2984 0.767759 12.2598 0 10.0359 0C4.76711 0 0.504639 4.26247 0.504639 9.53114C0.504639 14.7998 4.76711 19.0623 10.0358 19.0623C12.2597 19.0623 14.2982 18.2945 15.9132 17.0236C13.7159 15.3027 12.2862 12.5758 12.2862 9.53114Z" fill="#EB001B"/>
<path d="M31.3483 9.53114C31.3483 14.7997 27.0858 19.0623 21.8172 19.0623C19.5932 19.0623 17.5547 18.2945 15.9397 17.0236C18.1636 15.2763 19.5668 12.5758 19.5668 9.53114C19.5668 6.48651 18.1371 3.78597 15.9397 2.03855C17.5546 0.767759 19.5932 0 21.8172 0C27.0858 0 31.3483 4.28901 31.3483 9.53114Z" fill="#F79E1B"/>
</g>
<defs>
<clipPath id="clip0_18779_16342">
<rect width="30.8744" height="24" fill="white" transform="translate(0.504639)"/>
</clipPath>
</defs>
</svg>
