<svg width="101" height="20" viewBox="0 0 101 20" fill="none" xmlns="http://www.w3.org/2000/svg">
<g clip-path="url(#clip0_18779_16363)">
<path d="M6.91185 8.40417L10.7959 4.5203L14.6819 8.40622L16.9419 6.14623L10.7959 0L4.65186 6.14417L6.91185 8.40417Z" fill="#F3BA2F"/>
<path d="M5.31562 9.99824L3.05566 7.73828L0.795598 9.99835L3.05555 12.2583L5.31562 9.99824Z" fill="#F3BA2F"/>
<path d="M6.91175 11.5956L10.7958 15.4795L14.6817 11.5938L16.9429 13.8525L16.9418 13.8537L10.7958 19.9998L4.6516 13.8558L4.64844 13.8526L6.91175 11.5956Z" fill="#F3BA2F"/>
<path d="M18.5358 12.2601L20.7959 10L18.5359 7.74005L16.2759 10.0001L18.5358 12.2601Z" fill="#F3BA2F"/>
<path d="M13.088 10.0004H13.089L10.7957 7.70703L9.10085 9.40183H9.10069L8.90608 9.5966L8.50438 9.9983L8.50122 10.0015L8.50438 10.0048L10.7957 12.296L13.089 10.0027L13.0901 10.0015L13.088 10.0004Z" fill="#F3BA2F"/>
<path d="M24.3193 4.84766H29.2347C30.4547 4.84766 31.3772 5.16074 32.0024 5.78691C32.4862 6.27186 32.7281 6.87291 32.7281 7.58991V7.62024C32.7281 7.92322 32.6906 8.19097 32.6153 8.42317C32.5401 8.6557 32.4396 8.865 32.3141 9.05187C32.1888 9.2389 32.0432 9.40303 31.8776 9.54425C31.7119 9.68578 31.5339 9.8071 31.3432 9.90788C31.9564 10.1404 32.4392 10.4559 32.7911 10.8549C33.1429 11.254 33.319 11.8071 33.319 12.514V12.5441C33.319 13.0291 33.2258 13.4532 33.0393 13.817C32.8527 14.1805 32.5854 14.4836 32.2374 14.7261C31.8895 14.9686 31.471 15.1502 30.982 15.2716C30.4929 15.3927 29.9509 15.4532 29.3562 15.4532H24.3193V4.84766ZM28.7433 9.13528C29.2586 9.13528 29.6677 9.04713 29.9705 8.87021C30.2735 8.69345 30.425 8.40801 30.425 8.0142V7.98388C30.425 7.63051 30.2935 7.36039 30.031 7.17336C29.7683 6.98649 29.3895 6.89298 28.8948 6.89298H26.5918V9.13528H28.7433ZM29.3646 13.408C29.8797 13.408 30.2834 13.3148 30.5766 13.1278C30.8695 12.9409 31.0161 12.6505 31.0161 12.2565V12.2263C31.0161 11.8728 30.8796 11.5926 30.6069 11.3853C30.3341 11.1785 29.8948 11.0749 29.2887 11.0749H26.5918V13.4082L29.3646 13.408Z" fill="#F3BA2F"/>
<path d="M36.2463 4.84766H38.5798V15.4535H36.2463V4.84766Z" fill="#F3BA2F"/>
<path d="M42.1138 4.84766H44.2649L49.2346 11.3779V4.84766H51.5376V15.4535H49.5529L44.4166 8.7113V15.4535H42.1138V4.84766Z" fill="#F3BA2F"/>
<path d="M58.6019 4.76953H60.7532L65.2988 15.4511H62.8593L61.8896 13.0724H57.4048L56.4353 15.4511H54.0562L58.6019 4.76953ZM61.0563 11.0116L59.6471 7.57245L58.2384 11.0116H61.0563Z" fill="#F3BA2F"/>
<path d="M67.8174 4.84766H69.969L74.9384 11.3779V4.84766H77.2414V15.4535H75.2567L70.1203 8.7113V15.4535H67.8174V4.84766Z" fill="#F3BA2F"/>
<path d="M85.6388 15.6334C84.8607 15.6334 84.1388 15.4919 83.472 15.2093C82.8052 14.9267 82.2296 14.5401 81.7448 14.0501C81.2599 13.5603 80.8809 12.982 80.6086 12.3154C80.3358 11.6486 80.1995 10.9365 80.1995 10.1789V10.1487C80.1995 9.39114 80.3358 8.68172 80.6086 8.02001C80.8811 7.35846 81.2599 6.77762 81.7448 6.27767C82.2295 5.77771 82.8105 5.38359 83.487 5.09578C84.1636 4.80797 84.9115 4.66406 85.7296 4.66406C86.2242 4.66406 86.6762 4.70466 87.0853 4.78522C87.4944 4.86626 87.8655 4.97715 88.1991 5.11853C88.5326 5.26006 88.8403 5.43177 89.1235 5.63365C89.4058 5.83584 89.6686 6.05794 89.9111 6.30041L88.4266 8.01243C88.0119 7.63884 87.5905 7.34566 87.1613 7.13367C86.7318 6.92169 86.2496 6.81553 85.7143 6.81553C85.2698 6.81553 84.8581 6.90147 84.4797 7.07317C84.1009 7.24488 83.775 7.48214 83.5022 7.78512C83.2297 8.08809 83.0175 8.43925 82.8657 8.83811C82.7146 9.23728 82.6389 9.66394 82.6389 10.1184V10.1486C82.6389 10.603 82.7146 11.0325 82.8657 11.4363C83.0175 11.8405 83.2267 12.1939 83.4948 12.4969C83.7622 12.7998 84.0855 13.04 84.4642 13.2167C84.8433 13.3936 85.2598 13.4818 85.7143 13.4818C86.3206 13.4818 86.8327 13.3707 87.2519 13.1485C87.6712 12.9265 88.088 12.6234 88.5021 12.2394L89.9869 13.7394C89.7141 14.0324 89.4309 14.2951 89.1385 14.5272C88.8455 14.7597 88.5248 14.9591 88.1762 15.1259C87.8279 15.2924 87.4462 15.4189 87.0325 15.5045C86.618 15.5903 86.1536 15.6334 85.6388 15.6334Z" fill="#F3BA2F"/>
<path d="M92.7329 4.84766H100.718V6.92346H95.036V9.07493H100.036V11.1506H95.036V13.3779H100.794V15.4535H92.7329V4.84766Z" fill="#F3BA2F"/>
</g>
<defs>
<clipPath id="clip0_18779_16363">
<rect width="99.8356" height="20" fill="white" transform="translate(0.88208)"/>
</clipPath>
</defs>
</svg>
