<svg width="92" height="20" viewBox="0 0 92 20" fill="none" xmlns="http://www.w3.org/2000/svg">
<path d="M9.40807 17.1024C9.74775 17.8466 10.1867 18.5146 10.7095 19.1023C9.58057 19.7089 8.31559 20.0176 7.03412 19.9992C3.12206 19.9992 0.282471 17.4192 0.282471 13.3048C0.282471 9.15995 3.26709 6.5799 7.03412 6.5799C8.37376 6.5799 9.43097 6.86997 10.4996 7.43865C9.99965 8.04931 9.59127 8.74394 9.27831 9.50345C8.64686 9.25266 7.97307 9.12567 7.29365 9.12942C4.97695 9.12942 3.17931 10.6103 3.17931 13.3048C3.17931 15.8544 4.9197 17.4802 7.41197 17.4802C8.12568 17.4802 8.78596 17.3505 9.40807 17.1024ZM17.278 6.5799C21.1328 6.5799 23.9151 9.30499 23.9151 13.3048C23.9151 17.2741 21.1328 19.9992 17.278 19.9992C13.4537 19.9992 10.6714 17.2741 10.6714 13.3048C10.6714 9.30499 13.4537 6.5799 17.278 6.5799ZM17.278 9.04163C15.133 9.04163 13.5682 10.6942 13.5682 13.3048C13.5682 15.8849 15.133 17.5375 17.278 17.5375C19.4802 17.5375 21.0183 15.8849 21.0183 13.3048C21.0183 10.6942 19.4802 9.04163 17.278 9.04163ZM25.7395 19.7092V6.86997H28.6058V19.7092H25.7395ZM25.3617 2.92737C25.3914 2.47085 25.5938 2.04276 25.9276 1.72996C26.2615 1.41717 26.7018 1.24311 27.1593 1.24311C27.6168 1.24311 28.0571 1.41717 28.391 1.72996C28.7248 2.04276 28.9272 2.47085 28.9569 2.92737C28.955 3.40603 28.7659 3.86493 28.4299 4.20588C28.0939 4.54683 27.6379 4.74275 27.1593 4.75172C26.6807 4.74275 26.2247 4.54683 25.8887 4.20588C25.5527 3.86493 25.3636 3.40603 25.3617 2.92737ZM31.1095 7.68291C32.9901 6.97314 34.981 6.59978 36.991 6.5799C40.2657 6.5799 42.3534 7.82413 42.3534 11.4499V19.7092H39.5138V11.7095C39.5138 9.85458 38.3535 9.18667 36.762 9.18667C35.8213 9.17958 34.8844 9.30682 33.9796 9.56452V19.7092H31.1095V7.68291ZM44.754 0H47.6242V7.21728C48.231 6.89668 49.4218 6.5799 50.5477 6.5799C54.2575 6.5799 57.0398 8.95767 57.0398 13.072C57.0398 17.2169 54.288 19.9992 49.5363 19.9992C47.6814 19.9992 46.0593 19.6252 44.754 19.1596V0ZM47.6242 17.278C48.1738 17.4497 48.8989 17.5375 49.6241 17.5375C52.2576 17.5375 54.143 16.0872 54.143 13.1293C54.143 10.637 52.3759 9.15995 50.2042 9.15995C49.307 9.14397 48.4201 9.35258 47.6242 9.7668V17.278ZM65.3258 11.1026C65.3258 9.70955 64.2838 9.07217 62.864 9.07217C61.5561 9.07857 60.2742 9.43859 59.1542 10.1141V7.62184C60.4334 6.92497 61.8693 6.56633 63.3258 6.5799C66.1387 6.5799 68.1348 7.74016 68.1348 10.9576V19.4496C66.6931 19.7933 65.2164 19.9688 63.7342 19.9725C60.4023 19.9725 57.9673 18.9573 57.9673 16.0566C57.9673 13.4499 60.1962 12.1751 63.906 12.1751H65.3258V11.1026ZM65.3258 14.0872H64.1082C62.1083 14.0872 60.8068 14.6674 60.8068 15.9727C60.8068 17.3047 62.0244 17.8276 63.7609 17.8276C64.196 17.8276 64.8067 17.7665 65.3258 17.6825V14.0872ZM70.2225 16.2322C71.4095 17.1291 72.8293 17.6825 74.1346 17.6825C75.4093 17.6825 76.249 17.2474 76.249 16.2322C76.249 15.1864 75.4971 14.8124 73.8445 14.3773C71.1805 13.7666 70.0469 12.6942 70.0469 10.4652C70.0469 7.85466 72.0202 6.5799 74.6269 6.5799C76.0772 6.5799 77.2337 6.89668 78.3062 7.5646V10.2019C77.1764 9.39277 76.0773 8.8966 74.7147 8.8966C73.4667 8.8966 72.8026 9.50727 72.8026 10.3469C72.8026 11.1866 73.3522 11.6217 74.8292 12.0301C77.7566 12.6674 79.0313 13.7666 79.0313 16.0872C79.0313 18.7817 76.9742 19.9992 74.1918 19.9992C72.6842 19.9992 71.1805 19.5947 70.2225 18.9573V16.2322ZM82.9587 13.9422V13.9995C83.1304 16.2894 85.1036 17.5375 87.0997 17.5375C88.8668 17.5375 90.1454 17.1291 91.4164 16.2894V18.8123C90.2599 19.6252 88.55 19.9992 86.8974 19.9992C82.9014 19.9992 80.1763 17.4497 80.1763 13.3926C80.1763 9.30498 82.8403 6.5799 86.3784 6.5799C90.1149 6.5799 91.882 8.98439 91.882 12.4919V13.9422H82.9587ZM89.1874 12.0873C89.1302 10.0874 88.1455 8.98439 86.2906 8.98439C84.638 8.98439 83.4205 10.1446 83.0464 12.0873H89.1874Z" fill="white"/>
</svg>
