<svg width="56" height="18" viewBox="0 0 56 18" fill="none" xmlns="http://www.w3.org/2000/svg">
<g clip-path="url(#clip0_18779_16340)">
<path d="M28.7126 5.73306C28.6809 8.23051 30.9383 9.6241 32.6388 10.4527C34.3859 11.3029 34.9727 11.8481 34.9658 12.6084C34.9527 13.7719 33.5722 14.2854 32.2803 14.3054C30.0264 14.3403 28.7159 13.6969 27.674 13.2102L26.8621 17.0095C27.9074 17.4912 29.8429 17.9113 31.85 17.9297C36.5615 17.9297 39.6438 15.604 39.6605 11.9981C39.6789 7.42181 33.3306 7.16851 33.374 5.12301C33.3889 4.50277 33.9807 3.84089 35.2776 3.6726C35.9195 3.58759 37.6916 3.52253 39.7006 4.44769L40.4892 0.771786C39.4087 0.378387 38.0201 0.001688 36.2913 0.001688C31.8567 0.001688 28.7378 2.35904 28.7126 5.73306ZM48.0661 0.318316C47.2058 0.318316 46.4808 0.820145 46.1572 1.59024L39.4272 17.6597H44.1351L45.072 15.0705H50.8251L51.3685 17.6597H55.5181L51.897 0.318316H48.0661ZM48.7247 5.00287L50.0834 11.5147H46.3624L48.7247 5.00287ZM23.0044 0.318531L19.2934 17.6595H23.7797L27.489 0.318098L23.0044 0.318531ZM16.3676 0.318531L11.698 12.1215L9.80913 2.08557C9.58749 0.965231 8.71222 0.318316 7.74022 0.318316H0.106916L0 0.82188C1.56708 1.16193 3.34757 1.71039 4.42626 2.29723C5.08641 2.65571 5.27465 2.96909 5.49152 3.82094L9.06918 17.6597H13.8101L21.0786 0.318316L16.3676 0.318531Z" fill="white"/>
</g>
<defs>
<clipPath id="clip0_18779_16340">
<rect width="55.5181" height="18" fill="white"/>
</clipPath>
</defs>
</svg>
