<svg fill="none" width="24" height="24" viewBox="0 0 24 24" xmlns="http://www.w3.org/2000/svg">
  <!-- apps -->
  <symbol id="apps" fill="none" viewBox="0 0 24 24">
    <path stroke="currentColor" stroke-linecap="round" stroke-linejoin="round" stroke-width="1.5"
      d="M14.625 7h6m-3-3v6m-13-5a1 1 0 0 1 1-1h4a1 1 0 0 1 1 1v4a1 1 0 0 1-1 1h-4a1 1 0 0 1-1-1V5Zm0 10a1 1 0 0 1 1-1h4a1 1 0 0 1 1 1v4a1 1 0 0 1-1 1h-4a1 1 0 0 1-1-1v-4Zm10 0a1 1 0 0 1 1-1h4a1 1 0 0 1 1 1v4a1 1 0 0 1-1 1h-4a1 1 0 0 1-1-1v-4Z" />
  </symbol>
  <!-- arrow-left -->
  <symbol id="arrow-left" fill="none" viewBox="0 0 24 24">
    <path fill="currentColor" fill-rule="evenodd" d="M4.076 11.247h17v1.5h-17v-1.5Z"
      clip-rule="evenodd" />
    <path fill="currentColor" fill-rule="evenodd"
      d="M2 11.997 10.276 4l1.046 1.075-7.17 6.922 7.17 6.921-1.046 1.075L2 11.997Z"
      clip-rule="evenodd" />
  </symbol>
  <!-- arrow-right -->
  <symbol id="arrow-right" fill="none" viewBox="0 0 24 24">
    <path fill="currentColor" fill-rule="evenodd" d="M19 12.747H2v-1.5h17v1.5Z" clip-rule="evenodd" />
    <path fill="currentColor" fill-rule="evenodd"
      d="M21.076 11.997 12.8 19.993l-1.046-1.075 7.17-6.921-7.17-6.922L12.8 4l8.276 7.997Z"
      clip-rule="evenodd" />
  </symbol>
  <!-- bank-card -->
  <symbol id="bank-card" fill="none" viewBox="0 0 25 24">
    <rect width="22.5" height="16.5" x="1.75" y="3.75" stroke="currentColor" stroke-width="1.5"
      rx="2.25" />
    <path stroke="currentColor" stroke-linecap="round" stroke-width="1.5" d="M14 17h7" />
    <rect width="4" height="3" x="6" y="8" fill="currentColor" rx="1" />
  </symbol>
  <!-- blast -->
  <symbol id="blast" fill="none" viewBox="0 0 24 24">
    <path fill="currentColor"
      d="m17.238 11.452 2.649-1.32.913-2.803L18.974 6H6.812L4 8.089h14.295l-.76 2.35h-5.732l-.551 1.719h5.732l-1.61 4.946 2.686-1.33.959-2.965-1.8-1.32.018-.037Z" />
    <path fill="currentColor"
      d="m8.042 14.979 1.655-5.154L7.86 8.45l-2.758 8.653h10.272l.687-2.125h-8.02Z" />
  </symbol>
  <!-- blast-circle-filled -->
  <symbol id="blast-circle-filled" fill="none" viewBox="0 0 24 24">
    <path fill="currentColor" fill-rule="evenodd" d="M12 24c6.627 0 12-5.373 12-12 0-6.628-5.373-12-12-12S0 5.372 0 12c0 6.627 5.373 12 12 12Zm4.548-12.092 2.454-1.223.846-2.597-1.692-1.231H6.891L4.286 8.792h13.242l-.703 2.178h-5.31l-.512 1.591h5.31l-1.49 4.582 2.488-1.232.887-2.747-1.666-1.223.016-.033ZM8.03 15.174 9.563 10.4l-1.7-1.273-2.555 8.016h9.515l.636-1.969H8.03Z" clip-rule="evenodd"/>
  </symbol>
  <!-- caret-down -->
  <symbol id="caret-down" width="24" height="24" fill="none">
    <svg fill="none">
      <path stroke="currentColor" stroke-width="1.5" d="m6 9 6 6 6-6" />
    </svg>
  </symbol>
  <!-- caret-left -->
  <symbol id="caret-left" width="24" height="24" fill="none">
    <path stroke="currentColor" stroke-linecap="round" stroke-linejoin="round" stroke-width="1.5"
      d="m15.75 5.75-6.5 6.5 6.5 6.5" />
  </symbol>
  <!-- caret-right -->
  <symbol id="caret-right" width="24" height="24" fill="none">
    <path stroke="currentColor" stroke-linecap="round" stroke-linejoin="round" stroke-width="1.5"
      d="m9.25 18.75 6.5-6.5-6.5-6.5" />
  </symbol>
  <!-- checkmark -->
  <svg id="checkmark" fill="none" width="24" height="24">
    <path fill="currentColor" fill-rule="evenodd"
      d="M20.53 6.53 8.886 18.175 3.47 12.758l1.06-1.06 4.356 4.355L19.47 5.47l1.06 1.06Z"
      clip-rule="evenodd" />
  </svg>
  <!-- checkmark-circle -->
  <symbol id="checkmark-circle" fill="none" width="24" height="24" viewBox="0 0 24 24">
    <path stroke="currentColor" stroke-width="1.5" d="m6.5 11 4.2368 4.5L20 6" />
    <path stroke="currentColor" stroke-width="1.5"
      d="M19.5 5.5C21 7 22 9.74879 22 12c0 5.5228-4.4772 10-10 10-5.52285 0-10-4.4772-10-10C2 6.47715 6.47715 2 12 2c1.6186 0 3.1474.38456 4.5 1.06729" />
  </symbol>
  <!-- close -->
  <symbol id="close" width="24" height="24" fill="none">
    <g fill="currentColor" fill-rule="evenodd" clip-path="url(#a)" clip-rule="evenodd">
      <path d="M5.106 17.834 17.834 5.106l1.06 1.06L6.166 18.894l-1.06-1.06Z" />
      <path d="m6.166 5.106 12.728 12.728-1.06 1.06L5.106 6.166l1.06-1.06Z" />
    </g>
    <defs>
      <clipPath id="a">
        <path fill="#fff" d="M0 0h24v24H0z" />
      </clipPath>
    </defs>
  </symbol>
  <!-- copy -->
  <symbol id="copy" fill="none" viewBox="0 0 24 24">
    <path fill="currentColor" fill-rule="evenodd"
      d="M9.175 9.175v11.9h11.9v-11.9h-11.9Zm-1.36-1.36c.315-.314.74-.49 1.185-.49h12.25A1.675 1.675 0 0 1 22.925 9v12.25a1.675 1.675 0 0 1-1.675 1.675H9a1.675 1.675 0 0 1-1.675-1.675V9c0-.444.176-.87.49-1.184Z"
      clip-rule="evenodd" />
    <path fill="currentColor" fill-rule="evenodd"
      d="M1.566 1.566c.314-.315.74-.491 1.184-.491H15a1.675 1.675 0 0 1 1.675 1.675v5.5a.925.925 0 0 1-1.85 0V2.925h-11.9v11.9H8.25a.925.925 0 1 1 0 1.85h-5.5A1.675 1.675 0 0 1 1.075 15V2.75c0-.444.176-.87.49-1.184Z"
      clip-rule="evenodd" />
  </symbol>
  <!-- discord -->
  <symbol id="discord" width="24" height="24" fill="none">
    <path fill="currentColor"
      d="M20.307 4.52A19.41 19.41 0 0 0 15.427 3a.103.103 0 0 0-.08.034c-.206.377-.446.869-.606 1.246a18.389 18.389 0 0 0-5.486 0c-.16-.388-.4-.869-.617-1.246C8.627 3.011 8.592 3 8.558 3a19.556 19.556 0 0 0-4.88 1.52c-.011 0-.023.012-.034.023C.535 9.195-.322 13.72.1 18.2c0 .022.011.045.034.057a19.856 19.856 0 0 0 5.989 3.028c.034.012.068 0 .08-.023.457-.628.868-1.291 1.223-1.988.023-.046 0-.092-.046-.103a14.074 14.074 0 0 1-1.874-.892c-.046-.022-.046-.091-.012-.125.126-.092.252-.195.377-.286a.07.07 0 0 1 .08-.011c3.932 1.794 8.172 1.794 12.058 0a.07.07 0 0 1 .08.011c.125.103.251.194.377.297.046.035.046.103-.011.126-.595.354-1.223.64-1.875.891-.046.012-.057.069-.046.103.366.697.778 1.36 1.223 1.989.035.011.069.023.103.011a19.776 19.776 0 0 0 6-3.028.063.063 0 0 0 .035-.057c.503-5.178-.835-9.67-3.543-13.658-.012-.011-.023-.023-.046-.023ZM8.021 15.47c-1.177 0-2.16-1.086-2.16-2.423s.96-2.423 2.16-2.423c1.211 0 2.171 1.097 2.16 2.423 0 1.337-.96 2.423-2.16 2.423Zm7.966 0c-1.177 0-2.16-1.086-2.16-2.423s.96-2.423 2.16-2.423c1.211 0 2.171 1.097 2.16 2.423 0 1.337-.949 2.423-2.16 2.423Z" />
  </symbol>
  <!-- edit -->
  <symbol id="edit" width="24" height="24" fill="none">
    <g stroke="currentColor" stroke-width="1.5" clip-path="url(#a)">
      <path
        d="m17.7188 1.52941 5.2516 5.25162L9.44849 20.3029 2.6515 21.8483l1.54536-6.797L17.7188 1.52941ZM15 5l4.5358 4.53578M5 15l5 5M2.83984 19.2932l2.36711 2.3671" />
    </g>
    <defs>
      <clipPath id="a">
        <path fill="#fff" d="M0 0h24v24H0z" />
      </clipPath>
    </defs>
  </symbol>
  <!-- email -->
  <symbol id="email" width="24" height="24" fill="none">
    <path stroke="currentColor" stroke-linecap="round" stroke-linejoin="round" stroke-width="1.5"
      d="m3 6 9 6.5L21 6" />
    <path stroke="currentColor" stroke-width="1.5"
      d="M2 17V7a2 2 0 0 1 2-2h16a2 2 0 0 1 2 2v10a2 2 0 0 1-2 2H4a2 2 0 0 1-2-2Z" />
  </symbol>
  <!-- error -->
  <symbol id="error" fill="none" width="24" height="24" viewbox="0 0 24 24">
    <path stroke="currentColor" stroke-width="1.5"
      d="M15 21.0938h7.5006L12.0001 2.90625 6.74979 12l-5.25028 9.0938H9M12 9v6" />
    <circle cx="12.0002" cy="17.7001" r=".401558" fill="currentColor" stroke="currentColor"
      stroke-width="1.5" />
  </symbol>
  <!-- eth -->
  <symbol id="eth" fill="none" width="24" height="24" viewbox="0 0 24 24">
    <path fill="currentColor" fill-rule="evenodd"
      d="M12.692 15.956v3.477l3.55-5.66-3.55 2.183Zm-1.302 3.637v-3.578l-3.692-2.307 3.692 5.885Zm1.302-5.165 4.62-2.84-4.62-7.835v10.675Zm-1.302.052V3.583l-4.695 7.963 4.695 2.934Zm.6 8.52 6.991-11.142L11.991 0 5 11.858 11.99 23Z"
      clip-rule="evenodd" />
  </symbol>
  <!-- etherscan -->
  <symbol id="etherscan" width="24" height="24" fill="none">
    <g fill="currentColor" clip-path="url(#a)">
      <path
        d="M4.988 11.427a1.018 1.018 0 0 1 1.022-1.018l1.694.005a1.018 1.018 0 0 1 1.018 1.02v6.408c.191-.057.436-.117.704-.18a.849.849 0 0 0 .654-.826v-7.95A1.02 1.02 0 0 1 11.1 7.868h1.697a1.019 1.019 0 0 1 1.019 1.02v7.377s.425-.172.839-.346a.85.85 0 0 0 .519-.783V6.339A1.019 1.019 0 0 1 16.19 5.32h1.698a1.018 1.018 0 0 1 1.018 1.019v7.243c1.472-1.067 2.963-2.35 4.147-3.893a1.71 1.71 0 0 0 .26-1.597A11.98 11.98 0 0 0 12.151 0C5.498-.09 0 5.344.001 12a11.966 11.966 0 0 0 1.592 6.002 1.517 1.517 0 0 0 1.447.75 41.7 41.7 0 0 0 1.196-.124.848.848 0 0 0 .752-.842v-6.36ZM4.95 21.704a11.99 11.99 0 0 0 17.282-3.433A12.001 12.001 0 0 0 24 12c0-.276-.013-.55-.031-.821-4.383 6.538-12.474 9.594-19.018 10.525Z" />
    </g>
    <defs>
      <clipPath id="a">
        <path fill="currentColor" d="M0 0h24v24H0z" />
      </clipPath>
    </defs>
  </symbol>
  <!-- explosion -->
  <symbol id="explosion" width="24" height="24" fill="none">
    <path fill="currentColor" fill-rule="evenodd"
      d="m17.265 16.53 4.556-2.552a.305.305 0 0 1 .392.082.29.29 0 0 1-.032.383l-3.42 3.403h-2.225a4.704 4.704 0 0 0-3.065-2.507L21.71 2.142a.303.303 0 0 1 .398-.107.29.29 0 0 1 .134.378l-5.908 13.071.328.342c.078.08.154.168.23.259l.373.444ZM12.599 7.58l.739 7.726a4.73 4.73 0 0 0-1.038-.115 4.697 4.697 0 0 0-4.237 2.654H5.426l-2.967-2.041a.295.295 0 0 1-.097-.373.302.302 0 0 1 .361-.152l4.513 1.405.297-.385a6.37 6.37 0 0 1 .353-.423l.355-.386-2.867-4.753v-.002a.29.29 0 0 1 .064-.374.307.307 0 0 1 .392.002l4.545 3.882.354-.094c.067-.018.108-.029.145-.036l.51-.102.617-6.433a.298.298 0 0 1 .299-.268c.158 0 .284.118.3.268ZM1 21.204c0-.344.28-.627.633-.627h21.334c.354 0 .633.283.633.627 0 .344-.28.627-.633.627H1.633A.629.629 0 0 1 1 21.204ZM12.3 2.002c.17 0 .3.133.3.295v1.99c0 .162-.13.295-.3.295-.17 0-.3-.133-.3-.295v-1.99c0-.162.13-.295.3-.295Z"
      clip-rule="evenodd" />
  </symbol>
  <!-- gear -->
  <symbol id="gear" width="24" height="24" fill="none">
    <path fill="currentColor"
      d="M20.089 12.544v-1.096l1.413-1.203c.26-.223.43-.53.482-.864a1.402 1.402 0 0 0-.203-.963l-1.736-2.865a1.452 1.452 0 0 0-.538-.524 1.502 1.502 0 0 0-.735-.192 1.508 1.508 0 0 0-.47.072l-1.789.587c-.308-.2-.63-.38-.963-.537l-.376-1.805a1.426 1.426 0 0 0-.52-.837A1.497 1.497 0 0 0 13.703 2H10.26a1.497 1.497 0 0 0-.951.317c-.269.21-.453.507-.52.837l-.376 1.805a8.51 8.51 0 0 0-.97.537L5.69 4.88a1.51 1.51 0 0 0-.47-.043c-.259 0-.512.066-.736.192a1.453 1.453 0 0 0-.537.524L2.21 8.418a1.4 1.4 0 0 0-.18.952c.055.328.225.627.482.846l1.39 1.24v1.096l-1.39 1.203c-.264.22-.44.525-.494.86-.056.334.013.676.192.967l1.737 2.865c.129.217.314.398.537.524a1.5 1.5 0 0 0 .735.192c.16.001.32-.023.471-.072l1.788-.587c.309.2.63.38.964.537l.375 1.805c.067.33.251.627.52.837.27.211.606.323.951.317h3.473c.345.006.682-.106.95-.317.27-.21.454-.507.521-.837l.375-1.805c.336-.158.66-.337.972-.537l1.78.587c.152.05.311.073.47.072a1.5 1.5 0 0 0 .736-.192c.223-.126.409-.307.538-.524l1.677-2.865a1.401 1.401 0 0 0-.302-1.798l-1.39-1.24Zm-1.317 5.186-2.523-.83a6.563 6.563 0 0 1-1.994 1.124l-.523 2.572H10.26l-.522-2.543a6.933 6.933 0 0 1-1.987-1.125l-2.53.802-1.737-2.865 2.001-1.719a6.21 6.21 0 0 1 0-2.242l-2.001-1.77L5.22 6.27l2.524.831a6.563 6.563 0 0 1 1.994-1.124l.522-2.572h3.472l.523 2.543a6.932 6.932 0 0 1 1.986 1.125l2.531-.803 1.736 2.866-2 1.719c.135.741.135 1.5 0 2.242l2 1.77-1.736 2.864Z" />
    <path fill="currentColor"
      d="M12 16.545A4.545 4.545 0 1 1 16.545 12 4.503 4.503 0 0 1 12 16.545Zm0-7.575A2.961 2.961 0 0 0 8.97 12 2.962 2.962 0 0 0 12 15.03 2.963 2.963 0 0 0 15.03 12 2.962 2.962 0 0 0 12 8.97Z" />
  </symbol>
  <!-- globe -->
  <symbol id="globe" fill="none" width="24" height="24" viewBox="0 0 24 24">
    <path stroke="currentColor" stroke-linecap="round" stroke-linejoin="round" stroke-width="1.5"
      d="M12 21c4.9707 0 9-4.0293 9-9s-4.0293-9-9-9-9 4.0293-9 9 4.0293 9 9 9Z" />
    <path stroke="currentColor" stroke-linecap="round" stroke-linejoin="round" stroke-width="1.5"
      d="M12 21c2.7615 0 5-4.0293 5-9s-2.2385-9-5-9-5 4.0293-5 9 2.2385 9 5 9Z" />
    <path stroke="currentColor" stroke-width="1.5" d="M3 12h18M12 3v18" />
  </symbol>
  <!-- gold-bullion -->
  <symbol id="gold-bullion" width="24" height="24" fill="none">
    <path fill="currentColor" fill-rule="evenodd"
      d="m14.018 5 5.425.59 2.84 5.55-10.49 8.542L2 16.138l2.801-6.69L14.018 5Zm.22 1.281L7.245 9.657l4.01.791.9 7.327 8.556-6.966-2.072-4.05-4.4-.478Zm-3.31 11.759-.803-6.54-4.46-.88-2.005 4.79 7.268 2.63Z"
      clip-rule="evenodd" />
    <path fill="currentColor" fill-rule="evenodd"
      d="m10.515 10.434 8-4.667.63 1.08-8 4.667-.63-1.08Z"
      clip-rule="evenodd" />
  </symbol>
  <!-- info -->
  <symbol id="info" fill="none" width="24" height="24" viewbox="0 0 24 24">
    <path stroke="currentColor" stroke-width="1.5" d="M12 17.102v-6" />
    <circle cx="12" cy="8.402" r=".402" fill="currentColor" stroke="currentColor" stroke-width="1.5"
      transform="rotate(-180 12 8.402)" />
    <path stroke="currentColor" stroke-width="1.5" d="M7.873 20a9 9 0 1 1 8.127.064" />
  </symbol>
  <!-- lock -->
  <symbol id="lock" width="24" height="24" fill="none">
    <svg fill="none">
      <path fill="currentColor" fill-rule="evenodd"
        d="M8.19134 5.06191C8.93037 4.03543 10.1555 3.25 12 3.25c1.8445 0 3.0696.78543 3.8087 1.81191.7115.98824.9413 2.15155.9413 2.93809v3.25h.65c.358 0 .7014.1422.9546.3954s.3954.5966.3954.9546v6.8c0 .358-.1422.7014-.3954.9546s-.5966.3954-.9546.3954H6.6c-.35804 0-.70142-.1422-.95459-.3954C5.39223 20.1014 5.25 19.758 5.25 19.4v-6.8c0-.358.14223-.7014.39541-.9546.25317-.2532.59655-.3954.95459-.3954h.65V8c0-.78654.22984-1.94985.94134-2.93809ZM8.75 11.25h6.5V8c0-.54646-.1702-1.38315-.6587-2.06166C14.1304 5.29807 13.3555 4.75 12 4.75s-2.13037.54807-2.59134 1.18834C8.92016 6.61685 8.75 7.45354 8.75 8v3.25Zm-2 1.5v6.5h10.5v-6.5H6.75Z"
        clip-rule="evenodd" />
    </svg>
  </symbol>
  <!-- luck -->
  <symbol id="luck" width="24" height="24" fill="none">
    <path fill="currentColor" fill-rule="evenodd"
      d="M9.238 3.23a3.028 3.028 0 0 1 3.197.558 3.028 3.028 0 0 1 4.147.114 3.003 3.003 0 0 1 .856 2.658 3.068 3.068 0 0 1 2.668.822l.006.007a3.028 3.028 0 0 1 .1 4.179 3.028 3.028 0 0 1-.114 4.147c-1.205 1.225-3.192 1.223-4.614-.168a.658.658 0 0 1 .92-.941c.964.943 2.117.836 2.756.185l.003-.003a1.711 1.711 0 0 0 0-2.415l-.01-.011-.334-.351a.658.658 0 0 1 .012-.919l.35-.35a1.713 1.713 0 0 0 .004-2.419c-.66-.638-1.819-.735-2.779.201L12.9 12.032a.658.658 0 0 1-.93 0L8.46 8.524c-.964-.94-2.116-.832-2.754-.182l-.003.003a1.711 1.711 0 0 0 0 2.415l.01.01.334.352a.658.658 0 0 1-.012.918l-.35.352a1.712 1.712 0 0 0-.004 2.418c.66.638 1.82.735 2.781-.204a.658.658 0 1 1 .92.941c-1.424 1.394-3.404 1.387-4.622.203l-.006-.006a3.028 3.028 0 0 1-.1-4.179 3.027 3.027 0 0 1 .115-4.147 3.003 3.003 0 0 1 2.657-.856 3.068 3.068 0 0 1 .823-2.668l.006-.006c.281-.282.615-.505.982-.657Zm.153 4.363 3.043 3.043 3.042-3.043c.94-.963.832-2.115.182-2.753l-.003-.003a1.711 1.711 0 0 0-2.415 0l-.01.01-.352.334a.658.658 0 0 1-.919-.012l-.35-.35a1.712 1.712 0 0 0-2.419-.004c-.638.66-.735 1.819.201 2.778Z"
      clip-rule="evenodd" />
    <path fill="currentColor" fill-rule="evenodd"
      d="M11.986 11.11a.658.658 0 0 1 .93 0l3.516 3.515c1.392 1.424 1.39 3.409.18 4.62a3.028 3.028 0 0 1-4.18.1 3.028 3.028 0 0 1-4.148-.116.655.655 0 0 1-.067-.077 2.97 2.97 0 0 1-.786-1.652l-3.307 3.307a.658.658 0 0 1-.931-.93l4.388-4.388c.1-.1.223-.161.353-.183a4 4 0 0 1 .536-.68l.006-.006 3.51-3.51Zm-2.708 7.248a1.71 1.71 0 0 0 2.35-.062l.01-.01.351-.334a.658.658 0 0 1 .919.011l.35.351a1.713 1.713 0 0 0 2.422 0c.648-.648.753-1.803-.187-2.766l-3.042-3.042-3.042 3.042c-.94.964-.833 2.115-.183 2.753a.671.671 0 0 1 .052.057Z"
      clip-rule="evenodd" />
  </symbol>
  <!-- menu-dots -->
  <symbol id="menu-dots" width="24" height="24" fill="none">
    <path fill="currentColor"
      d="M12.202 6.99a1.18 1.18 0 0 1-.876-.373 1.21 1.21 0 0 1-.356-.876c0-.34.119-.636.356-.885.243-.243.535-.365.876-.365.34 0 .632.122.876.365.25.25.374.544.374.885 0 .34-.125.633-.374.876a1.18 1.18 0 0 1-.876.374ZM12.202 13.49a1.18 1.18 0 0 1-.876-.373 1.21 1.21 0 0 1-.356-.876c0-.34.119-.636.356-.885.243-.243.535-.365.876-.365.34 0 .632.122.876.365.25.25.374.544.374.885 0 .34-.125.633-.374.876a1.18 1.18 0 0 1-.876.374ZM12.202 19.99a1.18 1.18 0 0 1-.876-.373 1.21 1.21 0 0 1-.356-.876c0-.34.119-.636.356-.885.243-.243.535-.365.876-.365.34 0 .632.122.876.365.25.25.374.544.374.885 0 .34-.125.633-.374.876a1.18 1.18 0 0 1-.876.374Z" />
  </symbol>
  <!-- menu-hamburger -->
  <symbol id="menu-hamburger" width="24" height="24" fill="none">
    <path stroke="currentColor" stroke-width="1.5" d="M3 5h18M3 12h18M3 19h18" />
  </symbol>
  <!-- nft -->
  <symbol id="nft" fill="none" viewBox="0 0 24 24">
    <path stroke="currentColor" stroke-width="1.5"
      d="M3.691 2.75h16.5v16.5h-16.5zM2.941 22h8M16.941 22h4" />
    <circle cx="11.941" cy="11" r="4.25" stroke="currentColor" stroke-width="1.5" />
  </symbol>
  <!-- planet -->
  <symbol id="planet" fill="none" viewBox="0 0 24 24">
    <path stroke="currentColor" stroke-width="1.5" d="M12.27 20a8 8 0 1 0 0-16 8 8 0 0 0 0 16Z" />
    <path stroke="currentColor" stroke-width="1.5"
      d="M17.77 6.348c2.297-.538 3.945-.476 4.338.312.73 1.466-3.158 4.89-8.687 7.645-5.528 2.757-10.602 3.802-11.333 2.336-.392-.786.544-2.134 2.35-3.64" />
  </symbol>
  <!-- plus -->
  <symbol id="plus" fill="none" viewBox="0 0 24 24">
    <path fill="currentColor" fill-rule="evenodd" d="M11.25 21V3h1.5v18h-1.5Z" clip-rule="evenodd" />
    <path fill="currentColor" fill-rule="evenodd" d="M3 11.25h18v1.5H3v-1.5Z" clip-rule="evenodd" />
  </symbol>
  <!-- refresh -->
  <symbol id="refresh" fill="none" viewBox="0 0 24 24">
    <path fill-rule="evenodd" clip-rule="evenodd"
      d="M7.75042 3.21238C9.07246 2.57715 10.5208 2.2482 11.9876 2.25001L11.9867 3.00001V2.25001C11.987 2.25001 11.9873 2.25001 11.9876 2.25001C17.377 2.2505 21.75 6.6096 21.75 11.9894V13.4878C21.75 13.902 21.4142 14.2378 21 14.2378C20.5858 14.2378 20.25 13.902 20.25 13.4878V11.9894C20.25 7.44145 16.5518 3.75001 11.9867 3.75001L11.9857 3.75001C10.7444 3.74848 9.5188 4.02686 8.40005 4.5644C7.2813 5.10195 6.29827 5.88481 5.52414 6.85469C5.26574 7.17842 4.79383 7.23139 4.4701 6.97299C4.14636 6.7146 4.0934 6.24269 4.35179 5.91895C5.26667 4.77274 6.42838 3.8476 7.75042 3.21238ZM3 9.75973C3.41421 9.75973 3.75 10.0955 3.75 10.5097V12.008C3.75 16.5613 7.44571 20.2494 12.0122 20.25C13.2509 20.2482 14.4735 19.9702 15.5911 19.4362C16.7086 18.9022 17.6929 18.1257 18.4721 17.1633C18.7328 16.8414 19.205 16.7918 19.527 17.0524C19.8489 17.3131 19.8985 17.7854 19.6379 18.1073C18.7182 19.2431 17.5566 20.1595 16.2378 20.7896C14.919 21.4198 13.4761 21.7479 12.0144 21.75L12.0133 21.75C6.62144 21.75 2.25 17.3937 2.25 12.008V10.5097C2.25 10.0955 2.58579 9.75973 3 9.75973Z"
      fill="currentColor" />
    <path fill-rule="evenodd" clip-rule="evenodd"
      d="M18.6426 11.6504C18.8357 11.453 19.1523 11.4495 19.3496 11.6426L21.0366 13.2928L22.6425 11.6504C22.8356 11.453 23.1521 11.4494 23.3496 11.6425C23.547 11.8356 23.5506 12.1521 23.3575 12.3496L21.4019 14.3496C21.3092 14.4444 21.1826 14.4985 21.05 14.5C20.9174 14.5014 20.7896 14.4502 20.6948 14.3574L18.6504 12.3574C18.453 12.1643 18.4495 11.8477 18.6426 11.6504Z"
      fill="currentColor" />
    <path fill-rule="evenodd" clip-rule="evenodd"
      d="M2.95 9.50003C3.08262 9.49856 3.21039 9.54984 3.3052 9.64258L5.34965 11.6426C5.54704 11.8357 5.55052 12.1523 5.35742 12.3496C5.16431 12.547 4.84775 12.5505 4.65035 12.3574L2.96341 10.7072L1.3575 12.3496C1.16445 12.547 0.847885 12.5506 0.650441 12.3575C0.452998 12.1644 0.449441 11.8479 0.642497 11.6504L2.59805 9.65044C2.69078 9.55561 2.81738 9.5015 2.95 9.50003Z"
      fill="currentColor" />
  </symbol>
  <!-- search -->
  <symbol id="search" fill="none" viewBox="0 0 24 24">
    <path fill="currentColor" fill-rule="evenodd"
      d="M6.112 6.112a7.21 7.21 0 0 1 10.786 9.529l2.842 2.842a.889.889 0 1 1-1.257 1.257l-2.842-2.842A7.21 7.21 0 0 1 6.11 6.112Zm5.098-.334a5.432 5.432 0 1 0 0 10.864 5.432 5.432 0 0 0 0-10.864Z"
      clip-rule="evenodd" />
  </symbol>
  <!-- share -->
  <symbol id="share" fill="none" viewBox="0 0 24 24">
    <path fill="currentColor"
      d="M5.5 9.696v10.5c0 .138.112.25.25.25h12.5a.25.25 0 0 0 .25-.25v-10.5a.25.25 0 0 0-.25-.25h-2.5a.75.75 0 1 1 0-1.5h2.5c.966 0 1.75.784 1.75 1.75v10.5a1.75 1.75 0 0 1-1.75 1.75H5.75A1.75 1.75 0 0 1 4 20.196v-10.5c0-.966.784-1.75 1.75-1.75h2.5a.75.75 0 0 1 0 1.5h-2.5a.25.25 0 0 0-.25.25Zm7.03-8.53 3.25 3.25a.75.75 0 1 1-1.06 1.06l-1.97-1.97v10.69a.75.75 0 0 1-1.5 0V3.506l-1.97 1.97a.75.75 0 0 1-1.06-1.06l3.25-3.25a.75.75 0 0 1 1.06 0Z" />
  </symbol>
  <!-- ticket -->
  <symbol id="ticket" fill="none" viewBox="0 0 24 24">
    <path fill="currentColor"
      d="M21.286 10.714A.715.715 0 0 0 22 10V6.429A1.429 1.429 0 0 0 20.571 5H3.43A1.429 1.429 0 0 0 2 6.429V10a.714.714 0 0 0 .714.714 1.429 1.429 0 1 1 0 2.857.715.715 0 0 0-.714.715v3.571a1.429 1.429 0 0 0 1.429 1.429H20.57A1.429 1.429 0 0 0 22 17.857v-3.571a.715.715 0 0 0-.714-.715 1.428 1.428 0 1 1 0-2.857Zm-.715 4.193v2.95h-5v-2.143h-1.428v2.143H3.429v-2.95a2.857 2.857 0 0 0 0-5.528v-2.95h10.714V8.57h1.428V6.43h5v2.95a2.857 2.857 0 0 0 0 5.528Z" />
    <path fill="currentColor" fill-rule="evenodd"
      d="M15.572 8.571h-1.43V6.43H3.43v2.95a2.857 2.857 0 0 1 0 5.528v2.95h10.714v-2.143h1.428v2.143h5v-2.95a2.857 2.857 0 0 1 0-5.528v-2.95h-5V8.57Zm.2-1.942V8.77h-1.83V6.63H3.63v2.6a3.057 3.057 0 0 1 0 5.829v2.6h10.314v-2.144h1.829v2.143h4.6v-2.6a3.057 3.057 0 0 1 0-5.829v-2.6h-4.6Zm6.16 4.018a.915.915 0 0 1-.646.267 1.229 1.229 0 1 0 0 2.457.914.914 0 0 1 .914.915v3.571a1.629 1.629 0 0 1-1.628 1.629H3.428A1.629 1.629 0 0 1 1.8 17.857v-3.571a.914.914 0 0 1 .914-.915 1.229 1.229 0 1 0 0-2.457A.915.915 0 0 1 1.8 10V6.429A1.629 1.629 0 0 1 3.429 4.8h17.143A1.629 1.629 0 0 1 22.2 6.429V10a.915.915 0 0 1-.268.646Zm-.141-.142a.714.714 0 0 1-.505.21 1.429 1.429 0 1 0 0 2.856.714.714 0 0 1 .714.715v3.571a1.429 1.429 0 0 1-1.428 1.429H3.428A1.429 1.429 0 0 1 2 17.857v-3.571a.714.714 0 0 1 .714-.715 1.429 1.429 0 1 0 0-2.857A.714.714 0 0 1 2 10V6.429A1.429 1.429 0 0 1 3.429 5h17.143A1.428 1.428 0 0 1 22 6.429V10c0 .19-.075.371-.21.505Z"
      clip-rule="evenodd" />
    <path fill="currentColor" d="M14.143 10h1.428v4.286h-1.428V10Z" />
    <path fill="currentColor" fill-rule="evenodd"
      d="M13.943 9.8h1.828v4.686h-1.828V9.8Zm.2.2v4.286h1.428V10h-1.428Z" clip-rule="evenodd" />
  </symbol>
  <!-- tokens -->
  <symbol id="tokens" fill="none" viewBox="0 0 24 24">
    <ellipse cx="8.87" cy="6.464" stroke="currentColor" stroke-width="1.5" rx="8" ry="4"
      transform="rotate(-30 8.87 6.464)" />
    <path stroke="currentColor" stroke-width="1.5"
      d="m15.798 2.464 1.5 2.598c1.104 1.913-1.102 5.255-4.928 7.464-3.827 2.21-7.824 2.45-8.929.536l-1.5-2.598" />
    <ellipse cx="16.428" cy="16.604" stroke="currentColor" stroke-width="1.5" rx="4.979" ry="2.49"
      transform="rotate(25.308 16.428 16.604)" />
    <path stroke="currentColor" stroke-linecap="round" stroke-width="1.5"
      d="m20.925 18.742-1.012 2.14c-.587 1.243-3.08 1.297-5.565.122-2.486-1.176-4.025-3.136-3.437-4.38l1.012-2.14" />
  </symbol>
  <!-- twitter -->
  <symbol id="twitter" fill="none" width="24" height="24" viewbox="0 0 24 24">
    <path stroke="currentColor" stroke-linecap="round" stroke-linejoin="round" stroke-width="1.5"
      d="M23 3.01s-2.018 1.192-3.14 1.53a4.48 4.48 0 0 0-7.86 3v1a10.66 10.66 0 0 1-9-4.53s-4 9 5 13a11.64 11.64 0 0 1-7 2c9 5 20 0 20-11.5 0-.278-.028-.556-.08-.83C21.94 5.674 23 3.01 23 3.01Z" />
  </symbol>
  <!-- twitter-filled -->
  <symbol id="twitter-filled" width="24" height="24" fill="none">
    <path fill="currentColor"
      d="M24 4.294a9.83 9.83 0 0 1-2.822.792 4.931 4.931 0 0 0 2.157-2.73 9.913 9.913 0 0 1-3.12 1.204C19.307 2.574 18.034 2 16.588 2c-2.696 0-4.899 2.203-4.899 4.922 0 .39.046.768.126 1.124a13.99 13.99 0 0 1-10.141-5.14 4.87 4.87 0 0 0-.665 2.467c0 1.71.86 3.224 2.19 4.084-.814 0-1.57-.23-2.236-.574v.035a4.925 4.925 0 0 0 3.946 4.83 4.84 4.84 0 0 1-2.214.08 4.91 4.91 0 0 0 4.589 3.419 9.777 9.777 0 0 1-6.115 2.11c-.39 0-.78-.022-1.17-.068a13.933 13.933 0 0 0 7.549 2.214c9.04 0 14.007-7.503 14.007-14.008 0-.218 0-.424-.011-.642A9.833 9.833 0 0 0 24 4.294Z" />
  </symbol>
  <!-- user -->
  <symbol id="user" width="24" height="24" fill="none">
    <g fill="currentColor">
      <circle cx="8.381" cy="5.834" r="5.334" />
      <path d="M16.763 21.55H0a8.381 8.381 0 1 1 16.763 0Z" />
    </g>
  </symbol>
  <!-- user-outline -->
  <symbol id="user-outline" width="24" height="24" fill="none">
    <path stroke="currentColor" stroke-width="1.5"
      d="M11.727 9.727a4.364 4.364 0 1 0 0-8.727 4.364 4.364 0 0 0 0 8.727Z" />
    <path stroke="currentColor" stroke-linecap="round" stroke-width="1.5"
      d="M20.451 18.454c.003-.178.003-.36.003-.545 0-2.71-3.907-4.909-8.727-4.909S3 15.198 3 17.91c0 2.71 0 4.908 8.727 4.908 2.434 0 4.19-.171 5.455-.477" />
  </symbol>
  <!-- usdb -->
  <symbol id="usdb" width="24" height="24" fill="none">
    <path fill="currentColor"
      d="m8.432 10.34.374-1.154L6.9 7.79l-1.091 3.347 1.897 1.394-.003.01h8.539l-.823 2.536H4.56l-.73 2.25h10.86l2.84-1.414 1.397-4.306-1.757-1.29-8.737.023Z" />
    <path fill="currentColor" d="M9.847 5.578 6.9 7.791l13.01.004.718-2.217H9.847Z" />
    <path fill="currentColor" d="M10.086 21.16 16.25 2h-2.185l-6.1 19.16h2.121Z" />
  </symbol>
  <!-- usdc -->
  <symbol id="usdc" fill="none" width="24" height="24" viewBox="0 0 24 24">
    <g clip-path="url(#a)">
      <path stroke="currentColor" stroke-width="1.5"
        d="M8.33138 18.944C5.75861 17.6453 4 15.0232 4 12s1.75861-5.6453 4.33138-6.94403M15.5556 19C18.1897 17.7217 20 15.0673 20 12c0-3.06728-1.8103-5.72169-4.4444-7" />
      <path fill="currentColor"
        d="M14.2887 9.66981c-.056-.44654-.287-.79245-.6929-1.03773-.4059-.24843-.9169-.37265-1.5328-.37265-.441 0-.8224.0629-1.1444.18868-.3219.12264-.5721.29246-.7506.50944-.175.21383-.26249.45754-.26249.73113 0 .22956.05949.42772.17849.59432.1225.1667.2817.3066.4777.4198.1995.1101.4129.2029.6404.2783.2275.0724.4462.1321.6562.1793l1.0498.2453c.343.0754.6947.1776 1.0552.3066.3604.1289.6946.2987 1.0026.5094.3079.2107.5564.4717.7454.783.1925.3113.2887.684.2887 1.1179 0 .5472-.1575 1.0331-.4724 1.4576-.3115.4245-.7647.7594-1.3596 1.0047-.5914.2453-1.3071.3679-2.147.3679-.8049 0-1.5013-.1148-2.08924-.3443-.58793-.2296-1.04812-.555-1.38058-.9764-.33246-.4246-.51618-.9277-.55118-1.5095h1.6273c.03149.3491.15748.64.3779.8727.224.2295.5092.4009.8557.5141.3499.1101.7332.1651 1.1496.1651.4584 0 .8661-.0644 1.2231-.1934.3605-.132.6439-.3144.8504-.5471.2065-.2359.3097-.511.3097-.8255 0-.2862-.091-.5204-.273-.7028-.1784-.1824-.4217-.3334-.7296-.4529-.3045-.1195-.6492-.2248-1.0341-.316l-1.2704-.3113c-.8609-.2107-1.54329-.5205-2.04723-.9293-.50044-.4088-.75066-.9497-.75066-1.62262 0-.5566.16798-1.04245.50394-1.45754.33596-.4151.7909-.73742 1.36485-.96698C10.7314 7.11635 11.3788 7 12.0997 7c.7279 0 1.3701.11478 1.9265.34434.56.22956 1.0009.5456 1.3229.94811.3219.39937.4899.85849.5039 1.37736h-1.5643Z" />
      <path stroke="currentColor" stroke-width="1.5" d="M12 5v14" />
      <circle cx="12" cy="12" r="11" stroke="currentColor" stroke-width="1.5" />
    </g>
    <defs>
      <clipPath id="a">
        <path fill="#fff" d="M0 0h24v24H0z" />
      </clipPath>
    </defs>
  </symbol>
  <!-- wallet -->
  <symbol id="wallet" fill="none" viewBox="0 0 24 24">
    <path fill="currentColor"
      d="M4.362 2A2.162 2.162 0 0 0 2.2 4.162v15.135a2.162 2.162 0 0 0 2.162 2.162h15.135a2.162 2.162 0 0 0 2.162-2.162v-2.465c0-.237.058-.46.248-.785.19-.327.29-.697.293-1.074V8.486a2.162 2.162 0 0 0-.293-1.073c-.19-.326-.248-.548-.248-.786V4.162A2.162 2.162 0 0 0 19.497 2H4.362Zm-.54 1.622h16.216v2.702H13.01a2.162 2.162 0 0 0-2.162 2.162v6.487a2.162 2.162 0 0 0 2.162 2.162h7.027v2.703H3.822V3.622Zm8.648 4.324h8.108v7.568H12.47V7.946Zm3.784 2.162a1.622 1.622 0 1 0 0 3.244 1.622 1.622 0 0 0 0-3.244Z" />
  </symbol>
</svg>